<svg xmlns="http://www.w3.org/2000/svg" version="1.1" xmlns:xlink="http://www.w3.org/1999/xlink" xmlns:svgjs="http://svgjs.dev/svgjs" width="1000" height="1000" viewBox="0 0 1000 1000"><rect width="1000" height="1000" fill="#ffffff"></rect><g transform="matrix(0.7,0,0,0.7,149.5757664652533,432.0412191170806)"><svg viewBox="0 0 396 77" data-background-color="#ffffff" preserveAspectRatio="xMidYMid meet" height="194" width="1000" xmlns="http://www.w3.org/2000/svg" xmlns:xlink="http://www.w3.org/1999/xlink"><g id="tight-bounds" transform="matrix(1,0,0,1,0.23999497108525247,0.03332936660382302)"><svg viewBox="0 0 395.52 76.93334126679234" height="76.93334126679234" width="395.52"><g><svg viewBox="0 0 516.2154217807783 100.41003542435723" height="76.93334126679234" width="395.52"><g transform="matrix(1,0,0,1,120.69542178077839,28.723178858990284)"><svg viewBox="0 0 395.52 42.963677706376664" height="42.963677706376664" width="395.52"><g><svg viewBox="0 0 395.52 42.963677706376664" height="42.963677706376664" width="395.52"><g><svg viewBox="0 0 395.52 42.963677706376664" height="42.963677706376664" width="395.52"><g transform="matrix(1,0,0,1,0,0)"><svg width="395.52" viewBox="2.25 -37.25 404.5799865722656 43.95000076293945" height="42.963677706376664" data-palette-color="#ffffff"><path d="M26.8-19.25L26.8-19.25Q27.7-19.25 28.1-19.65 28.5-20.05 29.35-21.35L29.35-21.35 35.45-30.65Q35.75-31.15 36.13-31.33 36.5-31.5 36.9-31.5L36.9-31.5 37.75-31.5Q38.45-31.5 38.78-31.13 39.1-30.75 39.1-29.95L39.1-29.95 39.1-4.5 38.6-4.5 38.6-29.95Q38.6-30.35 38.43-30.68 38.25-31 37.75-31L37.75-31 37-31Q36.65-31 36.4-30.9 36.15-30.8 35.85-30.3L35.85-30.3 29.75-21.1Q28.85-19.75 28.38-19.25 27.9-18.75 26.8-18.75L26.8-18.75Q25.7-18.75 25.23-19.25 24.75-19.75 23.85-21.1L23.85-21.1 17.75-30.3Q17.45-30.8 17.18-30.9 16.9-31 16.55-31L16.55-31 15.8-31Q15.3-31 15.15-30.68 15-30.35 15-29.95L15-29.95 15-4.5 14.5-4.5 14.5-29.95Q14.5-30.75 14.83-31.13 15.15-31.5 15.8-31.5L15.8-31.5 16.65-31.5Q17.05-31.5 17.45-31.33 17.85-31.15 18.15-30.65L18.15-30.65 24.25-21.35Q25.1-20.05 25.5-19.65 25.9-19.25 26.8-19.25ZM11 0L18.45 0Q19.4 0 19.83-0.43 20.25-0.85 20.25-1.8L20.25-1.8 20.25-19.4 23.2-13.95Q23.65-13.1 24.28-12.73 24.9-12.35 25.85-12.35L25.85-12.35 27.85-12.35Q28.8-12.35 29.43-12.73 30.05-13.1 30.5-13.95L30.5-13.95 33.45-19.4 33.45-1.8Q33.45-0.85 33.88-0.43 34.3 0 35.25 0L35.25 0 42.95 0Q43.9 0 44.33-0.43 44.75-0.85 44.75-1.8L44.75-1.8 44.75-34.2Q44.75-35.15 44.33-35.58 43.9-36 42.95-36L42.95-36 34.85-36Q34.05-36 33.52-35.65 33-35.3 32.55-34.5L32.55-34.5 28.1-26.35Q27.85-25.9 27.68-25.7 27.5-25.5 27.2-25.5L27.2-25.5 26.75-25.5Q26.45-25.5 26.28-25.7 26.1-25.9 25.85-26.35L25.85-26.35 21.35-34.5Q20.9-35.3 20.38-35.65 19.85-36 19.05-36L19.05-36 11-36Q10.05-36 9.63-35.58 9.2-35.15 9.2-34.2L9.2-34.2 9.2-1.8Q9.2-0.85 9.63-0.43 10.05 0 11 0L11 0ZM20.05 0.05L20.05 0.05 13.55 5.45Q13.35 5.65 12.93 5.8 12.5 5.95 12 5.95L12 5.95 4.55 5.95Q3.35 5.95 2.8 5.4 2.25 4.85 2.25 3.65L2.25 3.65 2.25-28.75Q2.25-29.4 2.43-29.85 2.6-30.3 2.95-30.6L2.95-30.6 9.4-36.05Q9.65-36.25 10.08-36.38 10.5-36.5 11-36.5L11-36.5 19.05-36.5Q20-36.5 20.63-36.1 21.25-35.7 21.8-34.75L21.8-34.75 25.2-28.5 25.65-29.3Q25.85-29.65 26.08-29.98 26.3-30.3 26.55-30.5L26.55-30.5 33-35.9Q33.4-36.2 33.83-36.35 34.25-36.5 34.85-36.5L34.85-36.5 42.95-36.5Q44.15-36.5 44.7-35.95 45.25-35.4 45.25-34.2L45.25-34.2 45.25-1.8Q45.25-1.15 45.08-0.7 44.9-0.25 44.55 0.05L44.55 0.05 38.05 5.45Q37.85 5.65 37.43 5.8 37 5.95 36.5 5.95L36.5 5.95 28.8 5.95Q27.55 5.95 27.03 5.4 26.5 4.85 26.5 3.65L26.5 3.65 26.5-9.55 23.55-7.1Q23.15-6.75 22.63-6.58 22.1-6.4 21.4-6.4L21.4-6.4 20.75-6.4 20.75-1.8Q20.75-1.15 20.58-0.7 20.4-0.25 20.05 0.05ZM84.65-1.85L78.2 3.55Q76.45 5.05 73.3 5.88 70.15 6.7 65.2 6.7L65.2 6.7Q60.3 6.7 57.17 5.68 54.05 4.65 52.27 2.95 50.5 1.25 49.82-0.95 49.15-3.15 49.15-5.5L49.15-5.5 49.15-21.05Q49.15-23.35 49.8-25.33 50.45-27.3 52.15-28.7L52.15-28.7 58.65-34.1Q60.4-35.6 63.52-36.43 66.65-37.25 71.65-37.25L71.65-37.25Q76.55-37.25 79.67-36.45 82.8-35.65 84.57-34.23 86.35-32.8 87-30.83 87.65-28.85 87.65-26.5L87.65-26.5 87.65-9.45Q87.65-7.15 87-5.2 86.35-3.25 84.65-1.85L84.65-1.85ZM87.15-9.45L87.15-9.45 87.15-26.5Q87.15-28.8 86.47-30.68 85.8-32.55 84.07-33.9 82.35-35.25 79.32-36 76.3-36.75 71.65-36.75L71.65-36.75Q67-36.75 63.95-36 60.9-35.25 59.17-33.9 57.45-32.55 56.77-30.68 56.1-28.8 56.1-26.5L56.1-26.5 56.1-9.45Q56.1-7.15 56.77-5.28 57.45-3.4 59.17-2.08 60.9-0.75 63.95 0 67 0.75 71.65 0.75L71.65 0.75Q76.3 0.75 79.32 0 82.35-0.75 84.07-2.08 85.8-3.4 86.47-5.28 87.15-7.15 87.15-9.45ZM81.7-25.35L81.7-10.6Q81.7-7.6 79.55-5.73 77.4-3.85 71.55-3.85L71.55-3.85Q65.7-3.85 63.6-5.73 61.5-7.6 61.5-10.6L61.5-10.6 61.5-25.35Q61.5-28.35 63.6-30.23 65.7-32.1 71.55-32.1L71.55-32.1Q77.4-32.1 79.55-30.23 81.7-28.35 81.7-25.35L81.7-25.35ZM62-25.35L62-10.6Q62-7.8 64-6.08 66-4.35 71.55-4.35L71.55-4.35Q77.1-4.35 79.15-6.08 81.2-7.8 81.2-10.6L81.2-10.6 81.2-25.35Q81.2-28.15 79.15-29.88 77.1-31.6 71.55-31.6L71.55-31.6Q66-31.6 64-29.88 62-28.15 62-25.35L62-25.35ZM67.45-11.25L67.45-11.25 67.45-24.7Q67.45-25.65 68.2-26.33 68.95-27 71.65-27L71.65-27Q74.35-27 75.1-26.33 75.85-25.65 75.85-24.7L75.85-24.7 75.85-11.25Q75.85-10.25 75.1-9.58 74.35-8.9 71.65-8.9L71.65-8.9Q68.95-8.9 68.2-9.58 67.45-10.25 67.45-11.25ZM67.95-20.7L67.95-11.25Q67.95-10.75 68.15-10.38 68.35-10 68.9-9.75L68.9-9.75 68.9-19.25Q68.9-19.75 68.7-20.13 68.5-20.5 67.95-20.7L67.95-20.7ZM107.25 6.7L107.25 6.7Q102.4 6.7 99.27 5.68 96.15 4.65 94.4 2.95 92.65 1.25 91.97-0.95 91.3-3.15 91.3-5.5L91.3-5.5 91.3-28.75Q91.3-29.4 91.47-29.85 91.65-30.3 92-30.6L92-30.6 98.45-36.05Q98.7-36.25 99.12-36.38 99.55-36.5 100.05-36.5L100.05-36.5 107.9-36.5Q109.1-36.5 109.65-35.95 110.2-35.4 110.2-34.2L110.2-34.2 110.2-11.4Q110.2-10.95 110.35-10.58 110.5-10.2 111-10L111-10 111-28.75Q111-29.4 111.15-29.85 111.3-30.3 111.6-30.55L111.6-30.55 111.65-30.6 118.15-36.05Q118.4-36.25 118.8-36.38 119.2-36.5 119.75-36.5L119.75-36.5 127.35-36.5Q128.55-36.5 129.1-35.95 129.65-35.4 129.65-34.2L129.65-34.2 129.65-9.45Q129.65-7.15 129-5.2 128.35-3.25 126.65-1.85L126.65-1.85 120.15 3.55Q118.4 5.05 115.3 5.88 112.2 6.7 107.25 6.7ZM129.15-9.45L129.15-9.45 129.15-34.2Q129.15-35.15 128.72-35.58 128.3-36 127.35-36L127.35-36 119.75-36Q118.8-36 118.37-35.58 117.95-35.15 117.95-34.2L117.95-34.2 117.95-11.4Q117.95-10.4 117.2-9.73 116.45-9.05 113.8-9.05L113.8-9.05Q111.2-9.05 110.45-9.73 109.7-10.4 109.7-11.4L109.7-11.4 109.7-34.2Q109.7-35.15 109.27-35.58 108.85-36 107.9-36L107.9-36 100.05-36Q99.1-36 98.67-35.58 98.25-35.15 98.25-34.2L98.25-34.2 98.25-9.45Q98.25-7.15 98.92-5.28 99.6-3.4 101.32-2.08 103.05-0.75 106.05 0 109.05 0.75 113.7 0.75L113.7 0.75Q118.35 0.75 121.35 0 124.35-0.75 126.07-2.08 127.8-3.4 128.47-5.28 129.15-7.15 129.15-9.45ZM103.75-10.65L103.75-31.5 104.25-31.5 104.25-10.65Q104.25-7.85 106.22-6.13 108.2-4.4 113.75-4.4L113.75-4.4Q119.3-4.4 121.3-6.13 123.3-7.85 123.3-10.65L123.3-10.65 123.3-31.5 123.8-31.5 123.8-10.65Q123.8-7.65 121.7-5.78 119.6-3.9 113.75-3.9L113.75-3.9Q107.9-3.9 105.82-5.78 103.75-7.65 103.75-10.65L103.75-10.65ZM147.39-31.1L147.39-31.1 165.79-10.4 165.79-31.5 166.29-31.5 166.29-4.5 165.79-4.5 165.79-9.65 146.89-30.85Q146.84-30.9 146.77-30.95 146.69-31 146.64-31L146.64-31Q146.59-31 146.57-30.95 146.54-30.9 146.54-30.85L146.54-30.85 146.54-4.5 146.04-4.5 146.04-30.95Q146.04-31.25 146.24-31.4 146.44-31.55 146.64-31.55L146.64-31.55Q146.84-31.55 146.99-31.45 147.14-31.35 147.39-31.1ZM142.59 0L150.09 0Q151.04 0 151.47-0.43 151.89-0.85 151.89-1.8L151.89-1.8 151.89-18.3 160.44-7.95 160.44-1.8Q160.44-0.85 160.87-0.43 161.29 0 162.24 0L162.24 0 169.74 0Q170.69 0 171.12-0.43 171.54-0.85 171.54-1.8L171.54-1.8 171.54-34.2Q171.54-35.15 171.12-35.58 170.69-36 169.74-36L169.74-36 162.24-36Q161.29-36 160.87-35.58 160.44-35.15 160.44-34.2L160.44-34.2 160.44-23.55 150.74-34.65Q150.09-35.4 149.42-35.7 148.74-36 147.79-36L147.79-36 142.59-36Q141.64-36 141.22-35.58 140.79-35.15 140.79-34.2L140.79-34.2 140.79-1.8Q140.79-0.85 141.22-0.43 141.64 0 142.59 0L142.59 0ZM151.69 0.05L151.69 0.05 145.19 5.45Q144.99 5.65 144.57 5.8 144.14 5.95 143.64 5.95L143.64 5.95 136.14 5.95Q134.94 5.95 134.39 5.4 133.84 4.85 133.84 3.65L133.84 3.65 133.84-28.75Q133.84-29.4 134.02-29.85 134.19-30.3 134.54-30.6L134.54-30.6 140.99-36.05Q141.24-36.25 141.67-36.38 142.09-36.5 142.59-36.5L142.59-36.5 147.79-36.5Q148.89-36.5 149.64-36.15 150.39-35.8 151.14-35L151.14-35 154.59-31 160.64-36.05Q160.89-36.25 161.32-36.38 161.74-36.5 162.24-36.5L162.24-36.5 169.74-36.5Q170.94-36.5 171.49-35.95 172.04-35.4 172.04-34.2L172.04-34.2 172.04-1.8Q172.04-1.15 171.87-0.7 171.69-0.25 171.34 0.05L171.34 0.05 164.84 5.45Q164.64 5.65 164.22 5.8 163.79 5.95 163.29 5.95L163.29 5.95 155.79 5.95Q154.59 5.95 154.04 5.4 153.49 4.85 153.49 3.65L153.49 3.65 153.49-2.3 152.39-3.65 152.39-1.8Q152.39-1.15 152.22-0.7 152.04-0.25 151.69 0.05ZM193.99 5.95L193.99 5.95 185.89 5.95Q184.69 5.95 184.14 5.4 183.59 4.85 183.59 3.65L183.59 3.65 183.59-20.4 176.74-20.4Q175.54-20.4 174.99-20.95 174.44-21.5 174.44-22.7L174.44-22.7 174.44-28.75Q174.44-29.4 174.62-29.85 174.79-30.3 175.14-30.6L175.14-30.6 181.59-36.05Q181.84-36.25 182.27-36.38 182.69-36.5 183.19-36.5L183.19-36.5 209.59-36.5Q210.79-36.5 211.34-35.95 211.89-35.4 211.89-34.2L211.89-34.2 211.89-28.15Q211.89-27.5 211.72-27.05 211.54-26.6 211.19-26.3L211.19-26.3 204.69-20.9Q204.49-20.7 204.07-20.55 203.64-20.4 203.14-20.4L203.14-20.4 202.74-20.4 202.74-1.8Q202.74-1.15 202.57-0.7 202.39-0.25 202.04 0.05L202.04 0.05 195.54 5.45Q195.34 5.65 194.92 5.8 194.49 5.95 193.99 5.95ZM192.34 0L200.44 0Q201.39 0 201.82-0.43 202.24-0.85 202.24-1.8L202.24-1.8 202.24-26.35 209.59-26.35Q210.54-26.35 210.97-26.78 211.39-27.2 211.39-28.15L211.39-28.15 211.39-34.2Q211.39-35.15 210.97-35.58 210.54-36 209.59-36L209.59-36 183.19-36Q182.24-36 181.82-35.58 181.39-35.15 181.39-34.2L181.39-34.2 181.39-28.15Q181.39-27.2 181.82-26.78 182.24-26.35 183.19-26.35L183.19-26.35 190.54-26.35 190.54-1.8Q190.54-0.85 190.97-0.43 191.39 0 192.34 0L192.34 0ZM196.64-4.5L196.14-4.5 196.14-31 185.89-31 185.89-31.5 206.89-31.5 206.89-31 196.64-31 196.64-4.5ZM237.09 5.95L237.09 5.95 215.79 5.95Q214.59 5.95 214.04 5.4 213.49 4.85 213.49 3.65L213.49 3.65 213.49-2.3Q213.49-2.95 213.66-3.4 213.84-3.85 214.19-4.15L214.19-4.15 220.24-9.25 220.24-20.4 215.79-20.4Q214.59-20.4 214.04-20.95 213.49-21.5 213.49-22.7L213.49-22.7 213.49-28.75Q213.49-29.4 213.66-29.85 213.84-30.3 214.19-30.6L214.19-30.6 220.64-36.05Q220.89-36.25 221.31-36.38 221.74-36.5 222.24-36.5L222.24-36.5 243.54-36.5Q244.74-36.5 245.29-35.95 245.84-35.4 245.84-34.2L245.84-34.2 245.84-28.15Q245.84-27.5 245.66-27.05 245.49-26.6 245.14-26.3L245.14-26.3 239.19-21.3 239.19-10.05 243.54-10.05Q244.74-10.05 245.29-9.5 245.84-8.95 245.84-7.75L245.84-7.75 245.84-1.8Q245.84-1.15 245.66-0.7 245.49-0.25 245.14 0.05L245.14 0.05 238.64 5.45Q238.44 5.65 238.01 5.8 237.59 5.95 237.09 5.95ZM222.24 0L222.24 0 243.54 0Q244.49 0 244.91-0.43 245.34-0.85 245.34-1.8L245.34-1.8 245.34-7.75Q245.34-8.7 244.91-9.13 244.49-9.55 243.54-9.55L243.54-9.55 238.69-9.55 238.69-26.35 243.54-26.35Q244.49-26.35 244.91-26.78 245.34-27.2 245.34-28.15L245.34-28.15 245.34-34.2Q245.34-35.15 244.91-35.58 244.49-36 243.54-36L243.54-36 222.24-36Q221.29-36 220.86-35.58 220.44-35.15 220.44-34.2L220.44-34.2 220.44-28.15Q220.44-27.2 220.86-26.78 221.29-26.35 222.24-26.35L222.24-26.35 227.19-26.35 227.19-9.55 222.24-9.55Q221.29-9.55 220.86-9.13 220.44-8.7 220.44-7.75L220.44-7.75 220.44-1.8Q220.44-0.85 220.86-0.43 221.29 0 222.24 0ZM240.84-5L240.84-4.5 224.94-4.5 224.94-5 232.69-5 232.69-31 224.94-31 224.94-31.5 240.84-31.5 240.84-31 233.19-31 233.19-5 240.84-5ZM263.09-31.1L263.09-31.1 281.49-10.4 281.49-31.5 281.99-31.5 281.99-4.5 281.49-4.5 281.49-9.65 262.59-30.85Q262.54-30.9 262.46-30.95 262.39-31 262.34-31L262.34-31Q262.29-31 262.26-30.95 262.24-30.9 262.24-30.85L262.24-30.85 262.24-4.5 261.74-4.5 261.74-30.95Q261.74-31.25 261.94-31.4 262.14-31.55 262.34-31.55L262.34-31.55Q262.54-31.55 262.69-31.45 262.84-31.35 263.09-31.1ZM258.29 0L265.79 0Q266.74 0 267.16-0.43 267.59-0.85 267.59-1.8L267.59-1.8 267.59-18.3 276.14-7.95 276.14-1.8Q276.14-0.85 276.56-0.43 276.99 0 277.94 0L277.94 0 285.44 0Q286.39 0 286.81-0.43 287.24-0.85 287.24-1.8L287.24-1.8 287.24-34.2Q287.24-35.15 286.81-35.58 286.39-36 285.44-36L285.44-36 277.94-36Q276.99-36 276.56-35.58 276.14-35.15 276.14-34.2L276.14-34.2 276.14-23.55 266.44-34.65Q265.79-35.4 265.11-35.7 264.44-36 263.49-36L263.49-36 258.29-36Q257.34-36 256.91-35.58 256.49-35.15 256.49-34.2L256.49-34.2 256.49-1.8Q256.49-0.85 256.91-0.43 257.34 0 258.29 0L258.29 0ZM267.39 0.05L267.39 0.05 260.89 5.45Q260.69 5.65 260.26 5.8 259.84 5.95 259.34 5.95L259.34 5.95 251.84 5.95Q250.64 5.95 250.09 5.4 249.54 4.85 249.54 3.65L249.54 3.65 249.54-28.75Q249.54-29.4 249.71-29.85 249.89-30.3 250.24-30.6L250.24-30.6 256.69-36.05Q256.94-36.25 257.36-36.38 257.79-36.5 258.29-36.5L258.29-36.5 263.49-36.5Q264.59-36.5 265.34-36.15 266.09-35.8 266.84-35L266.84-35 270.29-31 276.34-36.05Q276.59-36.25 277.01-36.38 277.44-36.5 277.94-36.5L277.94-36.5 285.44-36.5Q286.64-36.5 287.19-35.95 287.74-35.4 287.74-34.2L287.74-34.2 287.74-1.8Q287.74-1.15 287.56-0.7 287.39-0.25 287.04 0.05L287.04 0.05 280.54 5.45Q280.34 5.65 279.91 5.8 279.49 5.95 278.99 5.95L278.99 5.95 271.49 5.95Q270.29 5.95 269.74 5.4 269.19 4.85 269.19 3.65L269.19 3.65 269.19-2.3 268.09-3.65 268.09-1.8Q268.09-1.15 267.91-0.7 267.74-0.25 267.39 0.05ZM320.18 5.95L320.18 5.95 304.43 5.95Q297.88 5.95 294.76 2.55 291.63-0.85 291.63-6.25L291.63-6.25 291.63-20.35Q291.63-23.1 292.43-25.1 293.23-27.1 294.78-28.45L294.78-28.45 301.23-33.9Q302.78-35.2 305.21-35.85 307.63-36.5 310.88-36.5L310.88-36.5 323.38-36.5Q324.58-36.5 325.13-35.95 325.68-35.4 325.68-34.2L325.68-34.2 325.68-28.15Q325.68-27.5 325.51-27.05 325.33-26.6 324.98-26.3L324.98-26.3 318.48-20.9Q318.28-20.7 317.86-20.55 317.43-20.4 316.93-20.4L316.93-20.4 310.43-20.4 310.43-13.2Q310.48-13.3 310.61-13.43 310.73-13.55 310.83-13.65L310.83-13.65 317.28-19.1Q317.53-19.3 317.96-19.43 318.38-19.55 318.88-19.55L318.88-19.55 326.63-19.55Q327.83-19.55 328.38-19 328.93-18.45 328.93-17.25L328.93-17.25 328.93-1.8Q328.93-1.15 328.76-0.7 328.58-0.25 328.23 0.05L328.23 0.05 321.73 5.45Q321.53 5.65 321.11 5.8 320.68 5.95 320.18 5.95ZM310.88 0L326.63 0Q327.58 0 328.01-0.43 328.43-0.85 328.43-1.8L328.43-1.8 328.43-17.25Q328.43-18.2 328.01-18.63 327.58-19.05 326.63-19.05L326.63-19.05 318.88-19.05Q317.93-19.05 317.51-18.63 317.08-18.2 317.08-17.25L317.08-17.25 317.08-9.45 312.23-9.45Q311.08-9.45 310.51-10.05 309.93-10.65 309.93-11.9L309.93-11.9 309.93-23.85Q309.93-25.1 310.68-25.73 311.43-26.35 312.98-26.35L312.98-26.35 323.38-26.35Q324.33-26.35 324.76-26.78 325.18-27.2 325.18-28.15L325.18-28.15 325.18-34.2Q325.18-35.15 324.76-35.58 324.33-36 323.38-36L323.38-36 310.88-36Q304.63-36 301.61-33.5 298.58-31 298.58-25.8L298.58-25.8 298.58-10.2Q298.58-5 301.61-2.5 304.63 0 310.88 0L310.88 0ZM322.98-4.5L313.03-4.5Q310.28-4.5 308.53-4.85 306.78-5.2 305.78-5.98 304.78-6.75 304.41-7.98 304.03-9.2 304.03-10.95L304.03-10.95 304.03-24.95Q304.03-28.5 305.63-30 307.23-31.5 312.03-31.5L312.03-31.5 320.68-31.5 320.68-31 312.03-31Q307.63-31 306.08-29.63 304.53-28.25 304.53-24.95L304.53-24.95 304.53-10.95Q304.53-7.7 306.26-6.35 307.98-5 313.03-5L313.03-5 322.48-5 322.48-14.55 322.98-14.55 322.98-4.5ZM360.33 5.95L360.33 5.95 334.88 5.95Q333.68 5.95 333.13 5.4 332.58 4.85 332.58 3.65L332.58 3.65 332.58-28.75Q332.58-29.4 332.76-29.85 332.93-30.3 333.28-30.6L333.28-30.6 339.73-36.05Q339.98-36.25 340.41-36.38 340.83-36.5 341.33-36.5L341.33-36.5 349.08-36.5Q350.28-36.5 350.83-35.95 351.38-35.4 351.38-34.2L351.38-34.2 351.38-13.85 351.48-13.95 357.93-19.4Q358.18-19.6 358.61-19.73 359.03-19.85 359.53-19.85L359.53-19.85 366.78-19.85Q367.98-19.85 368.53-19.3 369.08-18.75 369.08-17.55L369.08-17.55 369.08-1.8Q369.08-1.15 368.91-0.7 368.73-0.25 368.38 0.05L368.38 0.05 361.88 5.45Q361.68 5.65 361.26 5.8 360.83 5.95 360.33 5.95ZM341.33 0L366.78 0Q367.73 0 368.16-0.43 368.58-0.85 368.58-1.8L368.58-1.8 368.58-17.55Q368.58-18.5 368.16-18.93 367.73-19.35 366.78-19.35L366.78-19.35 359.53-19.35Q358.58-19.35 358.16-18.93 357.73-18.5 357.73-17.55L357.73-17.55 357.73-9.45 350.88-9.45 350.88-34.2Q350.88-35.15 350.46-35.58 350.03-36 349.08-36L349.08-36 341.33-36Q340.38-36 339.96-35.58 339.53-35.15 339.53-34.2L339.53-34.2 339.53-1.8Q339.53-0.85 339.96-0.43 340.38 0 341.33 0L341.33 0ZM363.38-4.5L344.98-4.5 344.98-31.5 345.48-31.5 345.48-5 362.88-5 362.88-14.85 363.38-14.85 363.38-4.5ZM388.58 5.95L388.58 5.95 380.48 5.95Q379.23 5.95 378.7 5.4 378.18 4.85 378.18 3.65L378.18 3.65 378.18-2.6 370.63-12.7Q369.43-14.3 369.03-15.5 368.63-16.7 368.63-19.15L368.63-19.15 368.63-28.75Q368.63-29.4 368.8-29.85 368.98-30.3 369.33-30.6L369.33-30.6 375.78-36.05Q376.03-36.25 376.45-36.38 376.88-36.5 377.38-36.5L377.38-36.5 385.08-36.5Q386.28-36.5 386.83-35.95 387.38-35.4 387.38-34.2L387.38-34.2 387.38-26Q387.38-25.55 387.43-25.1 387.48-24.65 387.73-24.15L387.73-24.15 388.33-23.3 388.33-28.75Q388.33-29.4 388.5-29.85 388.68-30.3 389.03-30.6L389.03-30.6 395.48-36.05Q395.73-36.25 396.15-36.38 396.58-36.5 397.08-36.5L397.08-36.5 404.53-36.5Q405.73-36.5 406.28-35.95 406.83-35.4 406.83-34.2L406.83-34.2 406.83-24.6Q406.83-22.15 406.43-20.95 406.03-19.75 404.83-18.15L404.83-18.15 397.33-8 397.33-1.8Q397.33-1.15 397.15-0.7 396.98-0.25 396.63 0.05L396.63 0.05 390.13 5.45Q389.93 5.65 389.5 5.8 389.08 5.95 388.58 5.95ZM386.93 0L395.03 0Q395.98 0 396.4-0.43 396.83-0.85 396.83-1.8L396.83-1.8 396.83-8.15 404.43-18.45Q405.53-20 405.93-21.15 406.33-22.3 406.33-24.6L406.33-24.6 406.33-34.2Q406.33-35.15 405.9-35.58 405.48-36 404.53-36L404.53-36 397.08-36Q396.13-36 395.7-35.58 395.28-35.15 395.28-34.2L395.28-34.2 395.28-26Q395.28-25.5 395.23-24.95 395.18-24.4 394.83-23.9L394.83-23.9 392.53-20.3Q392.28-19.85 392-19.65 391.73-19.45 391.33-19.45L391.33-19.45 390.83-19.45Q390.43-19.45 390.15-19.65 389.88-19.85 389.63-20.3L389.63-20.3 387.33-23.9Q386.98-24.4 386.93-24.95 386.88-25.5 386.88-26L386.88-26 386.88-34.2Q386.88-35.15 386.45-35.58 386.03-36 385.08-36L385.08-36 377.38-36Q376.43-36 376-35.58 375.58-35.15 375.58-34.2L375.58-34.2 375.58-24.6Q375.58-22.3 375.95-21.15 376.33-20 377.48-18.45L377.48-18.45 385.13-8.2 385.13-1.8Q385.13-0.85 385.55-0.43 385.98 0 386.93 0L386.93 0ZM391.58-13.05L391.58-13.05 391.23-13.05 391.23-4.5 390.73-4.5 390.73-13.05 390.23-13.05Q389.13-13.05 388.25-13.55 387.38-14.05 386.58-15.15L386.58-15.15 381.73-21.9Q381.18-22.65 381.08-23.65 380.98-24.65 380.98-25.75L380.98-25.75 380.98-31.5 381.48-31.5 381.48-25.75Q381.48-24.7 381.58-23.78 381.68-22.85 382.18-22.1L382.18-22.1 387.03-15.35Q387.68-14.35 388.53-13.95 389.38-13.55 390.23-13.55L390.23-13.55 391.58-13.55Q392.53-13.55 393.3-13.98 394.08-14.4 394.83-15.35L394.83-15.35 399.83-22.1Q400.33-22.75 400.43-23.73 400.53-24.7 400.53-25.75L400.53-25.75 400.53-31.5 401.03-31.5 401.03-25.75Q401.03-24.65 400.95-23.68 400.88-22.7 400.28-21.9L400.28-21.9 395.28-15.15Q394.48-14.05 393.6-13.55 392.73-13.05 391.58-13.05Z" opacity="1" transform="matrix(1,0,0,1,0,0)" fill="#ffffff" class="undefined-text-0" data-fill-palette-color="primary" id="text-0"></path></svg></g></svg></g></svg></g></svg></g><g><svg viewBox="0 0 100.41003542435723 100.41003542435723" height="100.41003542435723" width="100.41003542435723"><g><svg></svg></g><g id="icon-0"><svg viewBox="0 0 100.41003542435723 100.41003542435723" height="100.41003542435723" width="100.41003542435723"><g><path d="M0 50.205c0-27.727 22.478-50.205 50.205-50.205 27.727 0 50.205 22.478 50.205 50.205 0 27.727-22.478 50.205-50.205 50.205-27.727 0-50.205-22.478-50.205-50.205zM50.205 96.536c25.588 0 46.331-20.743 46.331-46.331 0-25.588-20.743-46.331-46.331-46.33-25.588 0-46.331 20.743-46.33 46.33 0 25.588 20.743 46.331 46.33 46.331z" data-fill-palette-color="accent" fill="#ffffff" stroke="transparent"></path></g><g transform="matrix(1,0,0,1,21.42113061804655,26.533795129437127)"><svg viewBox="0 0 57.56777418826413 47.34244516548298" height="47.34244516548298" width="57.56777418826413"><g><svg xmlns="http://www.w3.org/2000/svg" xmlns:xlink="http://www.w3.org/1999/xlink" version="1.1" x="0" y="0" viewBox="12.591999053955078 30.541000366210938 74.81600189208984 61.527000427246094" enable-background="new 0 0 100 100" xml:space="preserve" height="47.34244516548298" width="57.56777418826413" class="icon-c-0" data-fill-palette-color="accent" id="c-0"><g fill="#ffffff" data-fill-palette-color="accent"><path d="M27.727 43.153c2.873 0 5.215-2.828 5.215-6.305s-2.342-6.307-5.215-6.307c-2.875 0-5.213 2.83-5.213 6.307S24.852 43.153 27.727 43.153zM27.727 32.229c1.945 0 3.527 2.07 3.527 4.619 0 2.545-1.582 4.617-3.527 4.617-1.943 0-3.525-2.072-3.525-4.617C24.201 34.299 25.783 32.229 27.727 32.229z" fill="#ffffff" data-fill-palette-color="accent"></path><polygon points="82.346,71.28 82.346,67.842 87.408,66.219 87.408,46.92 82.346,45.295 82.346,41.858 75.684,41.858 75.684,71.28     " fill="#ffffff" data-fill-palette-color="accent"></polygon><path d="M47.447 72.967c1.533 0.904 2.744 1.617 2.744 1.617 1.67 0.982 3.822 0.426 4.803-1.244 0.984-1.668 0.428-3.818-1.238-4.803l-9.844-5.799c-0.973-0.568-2.154-0.645-3.186-0.193l-4.773 2.084c0 0-7.938-17.287-8.572-18.578-0.686-1.396-2.215-2.26-3.881-2.26-2.363 0-4.281 1.828-4.465 4.148 1.465 0.514 2.656 1.576 3.334 2.953 0.389 0.787 0.629 1.662 0.629 2.6v13.393h11.539c3.262 0 5.906 2.645 5.906 5.906v1.887c0.471 0.922 7.775 15.424 7.775 15.424 1.066 2.1 3.189 2.342 4.754 1.547l3.051-1.654L47.447 72.967z" fill="#ffffff" data-fill-palette-color="accent"></path><path d="M71.457 41.858c-2.988 6.795-2.988 19.977 0 29.422h2.539V41.858H71.457z" fill="#ffffff" data-fill-palette-color="accent"></path><path d="M68.275 73.354v17.895h3.375c0 0 0-11.883 0-14.52 2.332 0 9.486 0 11.82 0 0 2.637 0 14.52 0 14.52h3.375V73.354H68.275z" fill="#ffffff" data-fill-palette-color="accent"></path><path d="M34.537 68.292H21.592V53.493c0-1.799-1.064-3.34-2.592-4.061-0.582-0.275-1.223-0.439-1.908-0.439-2.488 0-4.5 2.016-4.5 4.5v33.818c0 2.484 2.012 4.5 4.5 4.5h17.445c2.484 0 4.5-2.016 4.5-4.5v-14.52C39.037 70.309 37.021 68.292 34.537 68.292z" fill="#ffffff" data-fill-palette-color="accent"></path></g></svg></g></svg></g></svg></g></svg></g></svg></g><defs></defs></svg><rect width="395.52" height="76.93334126679234" fill="none" stroke="none" visibility="hidden"></rect></g></svg></g></svg>